<svg xmlns="http://www.w3.org/2000/svg" width="277" height="203" fill="none">
  <g clip-path="url(#clip0_4613_9268)">
    <path fill="#fff" d="m12.226 174.164-3.062 7.447h6.124l-3.062-7.447Zm6.985 17.055-2.1-5.148H7.375l-2.099 5.148H.115l9.874-23.128h4.68l9.875 23.128h-5.333Z"/>
    <mask id="mask0_4613_9268" width="6607" height="3706" x="-5296" y="-710" maskUnits="userSpaceOnUse" style="mask-type:luminance">
      <path fill="#fff" d="M1310.92-709.939h-6606.38V2995.99h6606.38V-709.939Z"/>
    </mask>
    <g mask="url(#mask0_4613_9268)">
      <path fill="#fff" d="M38.335 182.399c0-2.917-1.927-4.873-4.267-4.873-2.34 0-4.3 1.887-4.3 4.873v.068c0 2.917 1.96 4.873 4.3 4.873s4.267-1.956 4.267-4.873v-.068Zm-.07 8.818v-2.539c-1.203 1.647-2.89 2.848-5.504 2.848-4.13 0-8.018-3.225-8.018-9.093v-.069c0-5.867 3.854-9.093 8.018-9.093 2.649 0 4.3 1.201 5.505 2.608v-8.647h4.989v23.951h-4.99v.034Z"/>
    </g>
    <path fill="#fff" d="M56.506 191.358h-4.542l-6.95-17.706h5.299l3.957 11.77 3.957-11.77h5.195l-6.916 17.706Z"/>
    <mask id="mask1_4613_9268" width="6607" height="3706" x="-5296" y="-710" maskUnits="userSpaceOnUse" style="mask-type:luminance">
      <path fill="#fff" d="M1310.92-709.939h-6606.38V2995.99h6606.38V-709.939Z"/>
    </mask>
    <g mask="url(#mask1_4613_9268)">
      <path fill="#fff" d="M74.772 184.15c-.86-.412-1.962-.652-3.2-.652-2.133 0-3.441.858-3.441 2.436v.069c0 1.338 1.135 2.127 2.718 2.127 2.34 0 3.922-1.269 3.922-3.088v-.892Zm-.104 7.069v-1.888c-1.204 1.339-2.89 2.231-5.333 2.231-3.337 0-6.056-1.887-6.056-5.387v-.069c0-3.843 2.925-5.628 7.123-5.628 1.789 0 3.062.309 4.3.721v-.309c0-2.059-1.272-3.225-3.784-3.225-1.893 0-3.27.377-4.852.96l-1.239-3.808c1.927-.858 3.854-1.407 6.848-1.407 5.47 0 7.845 2.814 7.845 7.583v10.191h-4.817l-.035.035Z"/>
    </g>
    <mask id="mask2_4613_9268" width="6607" height="3706" x="-5296" y="-710" maskUnits="userSpaceOnUse" style="mask-type:luminance">
      <path fill="#fff" d="M1310.92-709.939h-6606.38V2995.99h6606.38V-709.939Z"/>
    </mask>
    <g mask="url(#mask2_4613_9268)">
      <path fill="#fff" d="M93.833 191.22v-9.813c0-2.368-1.136-3.569-3.028-3.569-1.893 0-3.131 1.201-3.131 3.569v9.813h-4.99v-17.568h4.99v2.505c1.17-1.476 2.649-2.814 5.16-2.814 3.786 0 5.988 2.505 5.988 6.519v11.393h-4.99v-.035Z"/>
    </g>
    <mask id="mask3_4613_9268" width="6607" height="3706" x="-5296" y="-710" maskUnits="userSpaceOnUse" style="mask-type:luminance">
      <path fill="#fff" d="M1310.92-709.939h-6606.38V2995.99h6606.38V-709.939Z"/>
    </mask>
    <g mask="url(#mask3_4613_9268)">
      <path fill="#fff" d="M110.349 191.636c-5.299 0-9.187-4.084-9.187-9.093v-.069c0-5.01 3.854-9.162 9.256-9.162 3.337 0 5.402 1.132 7.054 2.951l-3.063 3.294c-1.101-1.166-2.236-1.956-4.026-1.956-2.512 0-4.266 2.196-4.266 4.804v.069c0 2.676 1.755 4.872 4.473 4.872 1.686 0 2.821-.72 4.06-1.887l2.925 2.951c-1.721 1.853-3.682 3.226-7.192 3.226"/>
    </g>
    <mask id="mask4_4613_9268" width="6607" height="3706" x="-5296" y="-710" maskUnits="userSpaceOnUse" style="mask-type:luminance">
      <path fill="#fff" d="M1310.92-709.939h-6606.38V2995.99h6606.38V-709.939Z"/>
    </mask>
    <g mask="url(#mask4_4613_9268)">
      <path fill="#fff" d="M127.042 177.327c-2.065 0-3.407 1.476-3.82 3.741h7.536c-.31-2.231-1.618-3.741-3.716-3.741Zm8.533 6.863h-12.284c.481 2.265 2.064 3.432 4.301 3.432 1.686 0 2.89-.515 4.266-1.819l2.857 2.539c-1.652 2.025-4.027 3.294-7.192 3.294-5.299 0-9.221-3.706-9.221-9.093v-.069c0-5.009 3.578-9.162 8.705-9.162 5.884 0 8.602 4.564 8.602 9.54v.069c0 .48-.034.789-.069 1.235"/>
    </g>
    <mask id="mask5_4613_9268" width="6607" height="3706" x="-5296" y="-710" maskUnits="userSpaceOnUse" style="mask-type:luminance">
      <path fill="#fff" d="M1310.92-709.939h-6606.38V2995.99h6606.38V-709.939Z"/>
    </mask>
    <g mask="url(#mask5_4613_9268)">
      <path fill="#fff" d="M150.987 182.399c0-2.917-1.927-4.873-4.267-4.873-2.339 0-4.301 1.887-4.301 4.873v.068c0 2.917 1.962 4.873 4.301 4.873 2.34 0 4.267-1.956 4.267-4.873v-.068Zm-.069 8.818v-2.539c-1.204 1.647-2.89 2.848-5.505 2.848-4.129 0-8.017-3.225-8.017-9.093v-.069c0-5.867 3.853-9.093 8.017-9.093 2.649 0 4.301 1.201 5.505 2.608v-8.647h4.989v23.951h-4.989v.034Z"/>
    </g>
    <path fill="#fff" d="M165.441 191.217v-22.956h17.377v4.495h-12.353v4.667h10.873v4.495h-10.873v4.804h12.525v4.495h-17.549Z"/>
    <mask id="mask6_4613_9268" width="6607" height="3706" x="-5296" y="-710" maskUnits="userSpaceOnUse" style="mask-type:luminance">
      <path fill="#fff" d="M1310.92-709.939h-6606.38V2995.99h6606.38V-709.939Z"/>
    </mask>
    <g mask="url(#mask6_4613_9268)">
      <path fill="#fff" d="M196.953 191.22v-9.813c0-2.368-1.136-3.569-3.028-3.569-1.892 0-3.131 1.201-3.131 3.569v9.813h-4.989v-17.568h4.989v2.505c1.17-1.476 2.649-2.814 5.161-2.814 3.785 0 5.987 2.505 5.987 6.519v11.393h-4.989v-.035Z"/>
    </g>
    <mask id="mask7_4613_9268" width="6607" height="3706" x="-5296" y="-710" maskUnits="userSpaceOnUse" style="mask-type:luminance">
      <path fill="#fff" d="M1310.92-709.939h-6606.38V2995.99h6606.38V-709.939Z"/>
    </mask>
    <g mask="url(#mask7_4613_9268)">
      <path fill="#fff" d="M212.988 177.327c-2.064 0-3.406 1.476-3.819 3.741h7.535c-.31-2.231-1.617-3.741-3.716-3.741Zm8.533 6.863h-12.284c.482 2.265 2.065 3.432 4.301 3.432 1.686 0 2.891-.515 4.267-1.819l2.856 2.539c-1.651 2.025-4.026 3.294-7.226 3.294-5.298 0-9.221-3.706-9.221-9.093v-.069c0-5.009 3.578-9.162 8.705-9.162 5.884 0 8.602 4.564 8.602 9.54v.069c0 .48-.034.789-.069 1.235"/>
    </g>
    <mask id="mask8_4613_9268" width="6607" height="3706" x="-5296" y="-710" maskUnits="userSpaceOnUse" style="mask-type:luminance">
      <path fill="#fff" d="M1310.92-709.939h-6606.38V2995.99h6606.38V-709.939Z"/>
    </mask>
    <g mask="url(#mask8_4613_9268)">
      <path fill="#fff" d="M234.531 178.521c-3.338 0-5.368 1.991-5.368 6.211v6.486h-4.989v-17.569h4.989v3.534c1.032-2.436 2.649-4.015 5.643-3.877v5.215h-.275Z"/>
    </g>
    <mask id="mask9_4613_9268" width="6607" height="3706" x="-5296" y="-710" maskUnits="userSpaceOnUse" style="mask-type:luminance">
      <path fill="#fff" d="M1310.92-709.939h-6606.38V2995.99h6606.38V-709.939Z"/>
    </mask>
    <g mask="url(#mask9_4613_9268)">
      <path fill="#fff" d="M249.226 181.507c0-2.402-1.893-4.083-4.301-4.083-2.409 0-4.267 1.681-4.267 4.083v.069c0 2.436 1.858 4.083 4.267 4.083 2.408 0 4.301-1.681 4.301-4.083v-.069Zm-4.886 15.03c-2.856 0-5.574-.652-7.811-1.853l1.721-3.74c1.823 1.029 3.613 1.612 5.952 1.612 3.407 0 5.024-1.647 5.024-4.804v-.857c-1.48 1.784-3.097 2.848-5.746 2.848-4.129 0-7.845-2.986-7.845-8.201v-.069c0-5.25 3.785-8.201 7.845-8.201 2.718 0 4.335 1.167 5.677 2.642v-2.299h4.989v13.623c0 6.622-3.303 9.299-9.84 9.299"/>
    </g>
    <mask id="mask10_4613_9268" width="6607" height="3706" x="-5296" y="-710" maskUnits="userSpaceOnUse" style="mask-type:luminance">
      <path fill="#fff" d="M1310.92-709.939h-6606.38V2995.99h6606.38V-709.939Z"/>
    </mask>
    <g mask="url(#mask10_4613_9268)">
      <path fill="#fff" d="M267.463 191.665c-1.341 3.568-2.786 4.907-5.78 4.907-1.824 0-3.166-.446-4.439-1.201l1.686-3.603c.654.377 1.48.686 2.134.686.86 0 1.307-.274 1.754-1.132l-6.916-17.672h5.299l4.026 11.975 3.854-11.975h5.195l-6.778 18.015h-.035Z"/>
    </g>
    <path fill="#fff" d="M233.158.503h-98.167l12.49 23.677h85.677V.503ZM233.16 60.209h-66.683l12.49 23.711h54.193V60.21ZM233.155 119.949h-35.2l12.49 23.677h22.71v-23.677Z"/>
    <path fill="#FE5000" d="M139.22 43.19 125.8 68.65l27.08 51.3H80.52l49.547-94.055L116.683.503 41.156 143.66h151.052L139.22 43.19Z"/>
    <mask id="mask11_4613_9268" width="6607" height="3706" x="-5296" y="-710" maskUnits="userSpaceOnUse" style="mask-type:luminance">
      <path fill="#fff" d="M1310.92-709.939h-6606.38V2995.99h6606.38V-709.939Z"/>
    </mask>
    <g mask="url(#mask11_4613_9268)">
      <path fill="#fff" d="M273.513 190.264h-.826v1.098h.826c.413 0 .653-.206.653-.549 0-.343-.24-.549-.688-.549m.688 2.711-.791-1.133h-.723v1.133h-.585v-3.226h1.446c.757 0 1.204.377 1.204 1.029 0 .549-.31.858-.791.996l.894 1.235h-.654v-.034Z"/>
    </g>
    <mask id="mask12_4613_9268" width="6607" height="3706" x="-5296" y="-710" maskUnits="userSpaceOnUse" style="mask-type:luminance">
      <path fill="#fff" d="M1310.92-709.939h-6606.38V2995.99h6606.38V-709.939Z"/>
    </mask>
    <g mask="url(#mask12_4613_9268)">
      <path fill="#fff" d="M273.307 188.609a2.77 2.77 0 0 0-2.786 2.779 2.77 2.77 0 0 0 2.786 2.78 2.772 2.772 0 0 0 2.788-2.78 2.772 2.772 0 0 0-2.788-2.779Zm0 6.108a3.372 3.372 0 0 1-3.371-3.363 3.372 3.372 0 0 1 6.744 0 3.373 3.373 0 0 1-3.373 3.363Z"/>
    </g>
  </g>
  <defs>
    <clipPath id="clip0_4613_9268">
      <path fill="#fff" d="M.138.366h276.686v202.453H.138z"/>
    </clipPath>
  </defs>
</svg>
